<svg width="129" height="40" viewBox="0 0 129 40" fill="none" xmlns="http://www.w3.org/2000/svg">
<path d="M18.2 31.35C17.36 31.35 16.6833 31 16.17 30.3C15.6567 29.6 15.4 28.5617 15.4 27.185V24.875C15.4 22.8917 15.0033 21.4917 14.21 20.675C13.44 19.8583 12.215 19.45 10.535 19.45H8.015V30.44H10.92V31H1.82V30.44H4.375V8.81H1.82V8.25H10.255C13.7783 8.25 16.1583 8.64667 17.395 9.44C17.9317 9.76666 18.3867 10.2567 18.76 10.91C19.1333 11.54 19.32 12.31 19.32 13.22C19.32 14.8067 18.8533 16.125 17.92 17.175C16.9867 18.2017 15.6217 18.8317 13.825 19.065V19.24C15.9717 19.24 17.3833 19.7533 18.06 20.78C18.76 21.8067 19.11 23.5567 19.11 26.03V27.64C19.11 28.48 19.1683 29.0633 19.285 29.39C19.4017 29.6933 19.6 29.845 19.88 29.845C20.1833 29.845 20.4867 29.6117 20.79 29.145C21.1167 28.6783 21.385 27.9783 21.595 27.045L22.225 27.185C21.665 29.9617 20.3233 31.35 18.2 31.35ZM10.255 18.89C12.215 18.89 13.5567 18.5167 14.28 17.77C15.0267 17 15.4 15.6117 15.4 13.605C15.4 11.575 14.9683 10.2683 14.105 9.685C13.265 9.10167 11.8183 8.81 9.765 8.81H8.015V18.89H10.255ZM31.7797 14.2C34.5564 14.2 36.3881 14.83 37.2747 16.09C38.1847 17.3267 38.6397 19.4967 38.6397 22.6V28.795C38.6397 29.7517 38.8497 30.23 39.2697 30.23C40.1331 30.23 40.7047 28.8883 40.9847 26.205L41.6147 26.275C41.2647 29.8917 40.0864 31.7 38.0797 31.7C37.4964 31.7 37.0414 31.49 36.7147 31.07C36.4114 30.65 36.2131 30.195 36.1197 29.705C36.0497 29.1917 36.0147 28.5617 36.0147 27.815H35.8047C35.5014 29.0517 34.8831 30.0083 33.9497 30.685C33.0164 31.3617 31.8147 31.7 30.3447 31.7C28.8981 31.7 27.6264 31.315 26.5297 30.545C25.4331 29.7517 24.8847 28.62 24.8847 27.15C24.8847 26.0533 25.1997 25.1433 25.8297 24.42C27.1364 22.9267 30.0997 22.18 34.7197 22.18C34.9764 22.18 35.2447 22.18 35.5247 22.18V20.465C35.5247 18.6217 35.2097 17.2333 34.5797 16.3C33.9497 15.3667 32.8531 14.9 31.2897 14.9C29.7497 14.9 28.6181 15.215 27.8947 15.845C27.1714 16.475 26.8097 17.1283 26.8097 17.805C26.8097 18.015 26.9031 18.12 27.0897 18.12C27.2997 18.12 27.4164 18.015 27.4397 17.805C27.5797 17.1983 28.0464 16.895 28.8397 16.895C29.3531 16.895 29.7614 17.0817 30.0647 17.455C30.3681 17.805 30.5197 18.2483 30.5197 18.785C30.5197 19.2983 30.3214 19.7417 29.9247 20.115C29.5514 20.465 29.0497 20.64 28.4197 20.64C27.8131 20.64 27.2764 20.4067 26.8097 19.94C26.3664 19.45 26.1447 18.855 26.1447 18.155C26.1447 16.8483 26.6931 15.8683 27.7897 15.215C28.8864 14.5383 30.2164 14.2 31.7797 14.2ZM35.5247 25.155V22.81C35.2914 22.81 34.9181 22.81 34.4047 22.81C33.9147 22.81 33.3197 22.845 32.6197 22.915C31.9431 22.985 31.2431 23.16 30.5197 23.44C29.0264 23.9767 28.2797 25.1667 28.2797 27.01C28.2797 28.13 28.5481 29.0283 29.0847 29.705C29.6214 30.3817 30.4847 30.72 31.6747 30.72C32.8647 30.72 33.7981 30.1833 34.4747 29.11C35.1747 28.0367 35.5247 26.7183 35.5247 25.155ZM60.3534 31H54.9284V27.815H54.7184C54.2984 29.005 53.6684 29.95 52.8284 30.65C52.0117 31.35 51.0317 31.7 49.8884 31.7C47.7884 31.7 46.2251 30.8833 45.1984 29.25C44.1951 27.5933 43.6934 25.505 43.6934 22.985C43.6934 20.465 44.2184 18.3767 45.2684 16.72C46.3184 15.04 47.9284 14.2 50.0984 14.2C52.2684 14.2 53.8084 15.1567 54.7184 17.07H54.9284V7.375H52.4434V6.85H53.1784C54.9984 6.85 56.6201 6.69833 58.0434 6.395V30.475H60.3534V31ZM54.9984 22.985V21.725C54.9984 19.905 54.6484 18.365 53.9484 17.105C53.2484 15.8217 52.1517 15.18 50.6584 15.18C49.0484 15.18 48.0334 16.09 47.6134 17.91C47.2634 19.38 47.0884 20.85 47.0884 22.32C47.0884 23.79 47.1234 24.91 47.1934 25.68C47.2867 26.45 47.4384 27.255 47.6484 28.095C47.8817 28.9117 48.2551 29.5533 48.7684 30.02C49.3051 30.4867 49.9351 30.72 50.6584 30.72C51.4051 30.72 52.0584 30.4633 52.6184 29.95C53.2017 29.4133 53.6567 28.7367 53.9834 27.92C54.6601 26.2633 54.9984 24.6183 54.9984 22.985ZM69.9584 14.2C72.7351 14.2 74.5668 14.83 75.4534 16.09C76.3634 17.3267 76.8184 19.4967 76.8184 22.6V28.795C76.8184 29.7517 77.0284 30.23 77.4484 30.23C78.3118 30.23 78.8834 28.8883 79.1634 26.205L79.7934 26.275C79.4434 29.8917 78.2651 31.7 76.2584 31.7C75.6751 31.7 75.2201 31.49 74.8934 31.07C74.5901 30.65 74.3918 30.195 74.2984 29.705C74.2284 29.1917 74.1934 28.5617 74.1934 27.815H73.9834C73.6801 29.0517 73.0618 30.0083 72.1284 30.685C71.1951 31.3617 69.9934 31.7 68.5234 31.7C67.0768 31.7 65.8051 31.315 64.7084 30.545C63.6118 29.7517 63.0634 28.62 63.0634 27.15C63.0634 26.0533 63.3784 25.1433 64.0084 24.42C65.3151 22.9267 68.2784 22.18 72.8984 22.18C73.1551 22.18 73.4234 22.18 73.7034 22.18V20.465C73.7034 18.6217 73.3884 17.2333 72.7584 16.3C72.1284 15.3667 71.0318 14.9 69.4684 14.9C67.9284 14.9 66.7968 15.215 66.0734 15.845C65.3501 16.475 64.9884 17.1283 64.9884 17.805C64.9884 18.015 65.0818 18.12 65.2684 18.12C65.4784 18.12 65.5951 18.015 65.6184 17.805C65.7584 17.1983 66.2251 16.895 67.0184 16.895C67.5318 16.895 67.9401 17.0817 68.2434 17.455C68.5468 17.805 68.6984 18.2483 68.6984 18.785C68.6984 19.2983 68.5001 19.7417 68.1034 20.115C67.7301 20.465 67.2284 20.64 66.5984 20.64C65.9918 20.64 65.4551 20.4067 64.9884 19.94C64.5451 19.45 64.3234 18.855 64.3234 18.155C64.3234 16.8483 64.8718 15.8683 65.9684 15.215C67.0651 14.5383 68.3951 14.2 69.9584 14.2ZM73.7034 25.155V22.81C73.4701 22.81 73.0968 22.81 72.5834 22.81C72.0934 22.81 71.4984 22.845 70.7984 22.915C70.1218 22.985 69.4218 23.16 68.6984 23.44C67.2051 23.9767 66.4584 25.1667 66.4584 27.01C66.4584 28.13 66.7268 29.0283 67.2634 29.705C67.8001 30.3817 68.6634 30.72 69.8534 30.72C71.0434 30.72 71.9768 30.1833 72.6534 29.11C73.3534 28.0367 73.7034 26.7183 73.7034 25.155ZM93.7721 16.86C93.7721 16.2533 93.5504 15.7517 93.1071 15.355C92.6638 14.9583 92.0688 14.76 91.3221 14.76C90.5754 14.76 89.8754 15.0633 89.2221 15.67C88.5921 16.2533 88.1021 17.0233 87.7521 17.98C87.1221 19.8233 86.8071 21.8183 86.8071 23.965V30.475H89.3621V31H81.3821V30.475H83.6921V15.425H81.2071V14.9H81.9421C83.8088 14.9 85.4538 14.7483 86.8771 14.445V18.085H87.0871C88.0671 15.495 89.5371 14.2 91.4971 14.2C92.3604 14.2 93.0604 14.48 93.5971 15.04C94.1571 15.5767 94.4371 16.2533 94.4371 17.07C94.4371 17.8633 94.2038 18.505 93.7371 18.995C93.2938 19.4617 92.7571 19.695 92.1271 19.695C91.5204 19.695 91.0188 19.52 90.6221 19.17C90.2488 18.7967 90.0621 18.3533 90.0621 17.84C90.0621 17.3033 90.2138 16.86 90.5171 16.51C90.8204 16.1367 91.2288 15.95 91.7421 15.95C92.5354 15.95 93.0021 16.2533 93.1421 16.86C93.1888 17.07 93.3054 17.175 93.4921 17.175C93.6788 17.175 93.7721 17.07 93.7721 16.86Z" fill="black"/>
<path d="M112 25C110.895 25 110 25.8954 110 27V31C110 32.1046 110.895 33 112 33H120C121.105 33 122 32.1046 122 31V27C122 25.8954 121.105 25 120 25H112Z" fill="black" stroke="black"/>
<rect x="103" width="26" height="26" rx="10" fill="#FFC700"/>
<rect x="105" y="2" width="22" height="22" rx="7" fill="#EAB600"/>
<rect x="107" y="4" width="18" height="18" rx="6" fill="#DAAA00"/>
<rect x="109" y="6" width="14" height="14" rx="4" fill="#C79B00"/>
</svg>
